<?xml version="1.0" encoding="UTF-8"?>
<svg id="Calque_1" data-name="Calque 1" xmlns="http://www.w3.org/2000/svg" viewBox="0 0 352.4 152.43">
  <defs>
    <style>
      .cls-1 {
        fill: #ef9c08;
      }

      .cls-2 {
        fill: #109396;
      }
    </style>
  </defs>
  <path class="cls-1" d="M238.33,0c-12.03,0-21.68,9.66-21.68,21.5s9.66,21.87,21.68,21.87,21.68-9.66,21.68-21.87S250.36,0,238.33,0Z"/>
  <g>
    <path class="cls-2" d="M28.24,152.43C4.01,152.43,0,133.85,0,119.63V50.93H38.81v45.19c0,17.68-.18,22.41,6.01,22.41,4.74,0,12.03-2.73,12.94-28.06V50.93h41v96.21H57.76v-1.82c0-5.28-1.27-8.75,8.2-36.08l-1.64-.55c-9.48,27.33-9.84,30.79-13.48,34.8-5.1,5.65-12.39,8.93-22.6,8.93Z"/>
    <path class="cls-2" d="M179.48,45.65c24.24,0,28.24,18.59,28.24,32.8v68.7h-38.81v-45.19c0-17.68,.18-22.41-6.01-22.41-4.74,0-12.03,2.73-12.94,28.06v39.54h-41V50.93h41v1.82c0,5.28,1.28,8.75-8.2,36.08l1.64,.55c9.48-27.33,9.84-30.79,13.48-34.8,5.1-5.65,12.39-8.93,22.6-8.93Z"/>
    <path class="cls-2" d="M311.77,123.64c0-17.31-5.83-27.88-11.12-28.43v51.93h-38.81V10.48h38.81V80.82h3.28v-7.65c0-22.23,12.21-27.7,24.42-27.7s24.05,5.47,24.05,5.47v39.18s-13.85-5.83-27.15-5.83c-4.37,0-8.56,.73-12.21,2.19,31.71,1.09,38.81,22.96,38.81,33.17v27.52h-40.09v-23.51Z"/>
    <g>
      <path class="cls-2" d="M257.63,50.94l-14.21,25.48c-3.57,5.95-2.97,13.52,1.49,18.84l15.67,18.66-51.36,33.23h53.61V50.94h-5.21Z"/>
      <path class="cls-2" d="M224.43,124.35c4.72-6.11,4.62-14.67-.25-20.66l-14.07-17.31,46.38-35.43h-60.64v96.21h11.88l16.7-22.8Z"/>
    </g>
  </g>
</svg>